<svg enable-background="new 0 0 100 100" height="512" viewBox="0 0 100 100" width="512" xmlns="http://www.w3.org/2000/svg"><path d="m59.6497116 66.676506c-.6212158.1381226-1.2458496.2766724-1.8813477.3092041-.4537354.0232544-1.4194336.072998-1.7287598-.3428345-.1004639-.1350708-.1525879-1.0670166-.0834961-1.4740601h-.8078613c-.1743164.6452637-.3447266 1.3591309-.8930664 1.7108765-.4907227.3147583-1.1142578.3156128-1.6955566.2730103-.581543-.0425415-1.1843262-.1154175-1.7330322.0811768-.5804443.2079468-1.0394287.7251587-1.1768799 1.3260498.6765137-.4188232 1.513916-.4532471 2.3092041-.4755859l2.1312256-.0598755c.3789062-.0106812.763916-.0206299 1.1303711.0761719.6499023.1715698 1.1633301.6539917 1.6662598 1.0999756s1.0673828.8905029 1.7364502.9553223c-.4534912-.8028564-.9071045-1.6056519-1.3607178-2.4085083.868164-.15094 1.6971435-.5228273 2.387207-1.070923z" fill="#2f4859"/><path d="m55.5459862 65.4046097h-.0000038c-.3589821 0-.6499977-.2910156-.6499977-.6500015v-7.0942459h1.2999992v7.0942459c0 .3589859-.2910156.6500015-.6499977.6500015z" fill="#e56353"/><path d="m61.9705353 68.6436234c-.6212158.1381226-1.2458496.2766724-1.8813477.3092041-.4537354.0232544-1.4194336.072998-1.7287598-.3428345-.1004639-.1350708-.1525879-1.0670166-.0834961-1.4740601h-.8078613c-.1743164.6452637-.3447266 1.3591309-.8930664 1.7108765-.4907227.3147583-1.1142578.3156128-1.6955566.2730103-.581543-.0425415-1.1843262-.1154175-1.7330322.0811768-.5804443.2079468-1.0394287.7251587-1.1768799 1.3260498.6765137-.4188232 1.513916-.4532471 2.3092041-.4755859l2.1312256-.0598755c.3789062-.0106812.763916-.0206299 1.1303711.0761719.6499023.1715698 1.1633301.6539917 1.6662598 1.0999756s1.0673828.8905029 1.7364502.9553223c-.4534912-.8028564-.9071045-1.6056519-1.3607178-2.4085083.868164-.1509401 1.6971435-.5228273 2.387207-1.070923z" fill="#3a556a"/><path d="m57.8668098 67.371727c-.3589859 0-.6500015-.2910156-.6500015-.6500015v-7.0942421h1.3000031v7.0942421c0 .3589859-.2910157.6500015-.6500016.6500015z" fill="#e56353"/><path d="m69.1335449 58.1202927.0000153-11.0656013c0-1.9226036-.2666245-3.8464851-.8947678-5.6635857-.8651505-2.5027161-2.2328949-4.6582794-4.1751938-6.4307861-.3300781-.3000488-3.3601074-2.2700195-4.0200195-2.5800171-.2099609-.1000366-.2800293-.210022-.2900391-.4299908-.0500488-1.1500244-.0600586-2.3200073-.1999512-3.4700317-.1400146-1.1900024-.3601074-2.3900146-.6500244-3.5599976-.4934769-2.038826-1.3412361-3.9427128-2.4989052-5.7335758-.7332764-1.134346-1.6247787-2.1487656-2.6628914-3.0129166-.7208252-.6000347-1.4902573-1.1601429-2.3082962-1.613493-.829834-.4700317-1.7299805-.8499756-2.6398926-1.1599731-.8900146-.2900391-1.8200684-.4900513-2.75-.6500244-1.7199707-.2999878-3.4799805-.289978-5.2199707-.1799927-1.0300293.0700073-1.9699707.4699707-2.6000977 1.3399658-.4699707.6400146-.8499756 1.3500366-1.2399902 2.0500488-.0200195.039978-.0500488.0799561-.0799561.1099854.2399902.7299805.6300049 1.8499756.8399658 2.4500122.4599609 1.2999878.9300537 2.6099854 1.3800049 3.9199829.5500488 1.5800171 1.3800049 3.9500122 1.960083 5.6599731.5.0200195 1.0100098.1100464 1.5100098.0800171.3598633-.0299683.4499512.1199951.5299072.4000244.3499756 1.1799927.6900635 2.3599854 1.0599365 3.5299664.2401123.75.4400635 1.5.3500977 2.2999878-.0200195.2000122 0 .4100342 0 .6100464-.0300293 1.0899658-.1099854 2.1799927-.0800781 3.2699585.0400391 1.2300415.1601562 2.4500122.3000488 3.6700439.0900879.7299805.2399902 1.4599609.4200439 2.1599731.4000244 1.4899902.9100342 2.9400024 1.5799561 4.3300171.9100342 1.8899536 2.0500488 3.6199951 3.4200439 5.2099609 1.0098877 1.1700439 2.1600342 2.2200317 3.3599854 3.1900024.1099854.0900269 5.2481422 6.9273338 7.949749 10.3143616 1.122345 1.4070969 1.9712372 2.9980087 2.5176888 4.7129364 1.6566849 5.1991577 3.3195953 10.4109344 4.9825058 15.6227036.0172653-.0026398.0127411-.0019455.0300064-.0045853.0400543-7.191803.0700912-14.383606.1001282-21.5553894l-.0300293-.3099976c.0100098-.1699829.0200195-.2600098.0200195-.3599854.0100099-2.3800047.0198976-4.7700194.0299073-7.1500242z" fill="#fcd462"/><path d="m69.1335449 47.0502853v11.0700073c-.0100098 2.3800049-.0198975 4.7700195-.0299072 7.1500244 0 .0999756-.0100098.1900024-.0200195.3599854l.0300293.3099976c0 .9299927-.0100098 1.8499756-.0100098 2.7700195v.3699951c-.0300293 6.1300049-.0600586 12.2699585-.0900879 18.4199829 0 0 0 0-.0100098 0s-.0100098 0-.0200195 0c-1.4799805-4.6500244-2.9699707-9.289978-4.4399414-13.9299927-.1799316-.5599976-.3601074-1.1300049-.5400391-1.6900024-.5500488-1.7200317-1.3999023-3.3099976-2.5200195-4.7200317-1.6999512-2.1199951-4.3898926-5.5999756-6.1599121-7.9199829-1.0500488-1.3699951-1.7800293-2.3399658-1.7900391-2.3900146-2.5700684-8.8200073-2-14.1300049-.1799316-17.3200073 3.4699707-6.1099854 12.5100098-4.8699951 14.8498535 1.75.0100098.0400391.0200195.0700073.0400391.1100464.6201172 1.8200072.8900146 3.7399901.8900146 5.659973z" fill="#e56353"/><path d="m69.1335449 53.3102951v9.3499756c-.0100098 1.1000366-.0100098 2.1900024-.0198975 3.2800293 0 .9299927-.0100098 1.8499756-.0100098 2.7700195v.0999756c0 .0499878 0 .1199951-.0100098.2000122l.0100098.0700073.0100098.1900024c-.0200195 6.0699463-.0500488 12.1499634-.0800781 18.2299805-.0100098 0-.0100098 0-.0200195 0 0 0 0 0-.0100098 0-1.3999023-4.4100342-2.8100586-8.8099976-4.2099609-13.210022-.0800781-.2399902-.1600342-.4799805-.25-.7199707-.1799316-.5599976-.3601074-1.1300049-.5400391-1.6900024-.5500488-1.7200317-1.3999023-3.3099976-2.5200195-4.7200317-1.6999512-2.1199951-4.3898926-5.5999756-6.1599121-7.9199829-1.4300537-6.0700073-.8901367-9.9000244.4699707-12.289978 2.9399414-5.1700439 10.5700684-4.1199951 12.5500488 1.4799805.0100098.0300293.0200195.0599976.0299072.0900269.5300294 1.5399779.7600098 3.159973.7600098 4.7899779z" fill="#d15241"/><path d="m48.3970299 17.0415306c.4356613.2700176.7065125.6607704.9119301 1.0919037.4860802 1.0201836.5038376 2.0893536.2358322 3.1619644-.649147 2.5979919-2.1900787 4.5398426-4.463768 5.90835-1.1289444.6795025-2.6777229 1.0606194-3.997406.8965263-.2480659-.0308437-.0890045-.2322121-.1792793-.5005341-.5800629-1.7240639-1.1793709-3.4416885-1.778389-5.1593285-.4566765-1.3094902-.9236946-2.6153679-1.3832893-3.9238472-.2397499-.6825905-.4754448-1.3666363-.7066422-2.0521603-.0230293-.0682907-.1618385-.3312607-.1324539-.3940983.3596458-.7691412 1.0961685-1.0557737 1.9411964-1.156538 1.4249077-.1699123 2.8443146-.0351648 4.2528572.1627083.9637871.1353931 1.9311943.3113804 2.8631783.5845671.6733093.197363 2.4362335 1.3804866 2.4362335 1.3804866z" fill="#27a2db"/><path d="m41.0836182 28.100275c-.0100098 0-.0100098 0-.0200195 0-.1101074-.0100098-.2199707.0200195-.3100586.0599976-.8399658.3800049-1.6999512.5599976-2.6199951.4100342-1.1400146-.2000122-2-.7999878-2.6199951-1.75-.1999512-.2999878-.3399658-.6400146-.5200195-.9899902-.6599121 1.2299805-1.0899658 2.5299683-1.3199463 3.9599609-.1700439-.2099609-.3199463-.3699951-.4300537-.5499878-.5400391-.8200073-1.0799561-1.6400146-1.5899658-2.4799805-.0999756-.1700439-.6300049-1.5300293-.6700439-1.7600098-.2099609-1.0599976-.119873-2.1199951.130127-3.1799927.369873-1.5599976 1.1499023-2.8800049 2.3798828-3.9100342.8701172-.7399902 1.8701172-1.2399902 2.9599609-1.5499878.1900635-.0599976.3400879-.1300049.4500732-.289978.2399902.7299805.6300049 1.8499756.8399658 2.4500122.4599609 1.2999878.9300537 2.6099854 1.3800049 3.9199829.0599365.1699829.1199951.3499756.1900635.5299683l-.1101074-.2799683c-1.1999512-.0100098-3.6899414 1.710022-4.0499268 2.9400024 1.8099365.6499634 3.8099365-.3400269 4.1700439-2.6199951.540039 1.5399781 1.2499999 3.5799562 1.7600097 5.0899659z" fill="#3a556a"/><circle cx="42.59" cy="18.039" fill="#3a556a" r="1.5"/><circle cx="42.59" cy="17.539" fill="#ebf0f3" r=".5"/></svg>